<mxfile host="app.diagrams.net" modified="2023-11-28T09:56:00.717Z" agent="Mozilla/5.0 (Macintosh; Intel Mac OS X 10_15_7) AppleWebKit/537.36 (KHTML, like Gecko) Chrome/119.0.0.0 Safari/537.36" etag="sZ2QGr3Tv6DmoOKM14qx" version="22.1.4" type="device">
  <diagram id="R2lEEEUBdFMjLlhIrx00" name="Page-1">
    <mxGraphModel dx="2092" dy="721" grid="1" gridSize="10" guides="1" tooltips="1" connect="1" arrows="1" fold="1" page="1" pageScale="1" pageWidth="850" pageHeight="1100" math="0" shadow="0" extFonts="Permanent Marker^https://fonts.googleapis.com/css?family=Permanent+Marker">
      <root>
        <mxCell id="0" />
        <mxCell id="1" parent="0" />
        <mxCell id="zdY4JYns60In2oT9KjvB-2" value="회원" style="rounded=0;whiteSpace=wrap;html=1;fontSize=16;" vertex="1" parent="1">
          <mxGeometry x="120" y="145" width="140" height="130" as="geometry" />
        </mxCell>
        <mxCell id="zdY4JYns60In2oT9KjvB-3" value="회원 uid&lt;span style=&quot;white-space: pre;&quot;&gt;&#x9;&lt;/span&gt;&lt;span style=&quot;white-space: pre;&quot;&gt;&#x9;&lt;/span&gt;" style="ellipse;whiteSpace=wrap;html=1;aspect=fixed;fontSize=16;" vertex="1" parent="1">
          <mxGeometry x="20" y="60" width="80" height="80" as="geometry" />
        </mxCell>
        <mxCell id="zdY4JYns60In2oT9KjvB-4" value="email" style="ellipse;whiteSpace=wrap;html=1;aspect=fixed;fontSize=16;" vertex="1" parent="1">
          <mxGeometry x="120" y="60" width="80" height="80" as="geometry" />
        </mxCell>
        <mxCell id="zdY4JYns60In2oT9KjvB-5" value="비밀번호" style="ellipse;whiteSpace=wrap;html=1;aspect=fixed;fontSize=16;" vertex="1" parent="1">
          <mxGeometry x="20" y="170" width="80" height="80" as="geometry" />
        </mxCell>
        <mxCell id="zdY4JYns60In2oT9KjvB-6" value="휴대폰 번호" style="ellipse;whiteSpace=wrap;html=1;aspect=fixed;fontSize=16;" vertex="1" parent="1">
          <mxGeometry x="220" y="60" width="80" height="80" as="geometry" />
        </mxCell>
        <mxCell id="zdY4JYns60In2oT9KjvB-7" value="등록일" style="ellipse;whiteSpace=wrap;html=1;aspect=fixed;fontSize=16;" vertex="1" parent="1">
          <mxGeometry x="20" y="280" width="80" height="80" as="geometry" />
        </mxCell>
        <mxCell id="zdY4JYns60In2oT9KjvB-8" value="관리자 식별&lt;br&gt;코드" style="ellipse;whiteSpace=wrap;html=1;aspect=fixed;fontSize=16;" vertex="1" parent="1">
          <mxGeometry x="120" y="280" width="80" height="80" as="geometry" />
        </mxCell>
        <mxCell id="zdY4JYns60In2oT9KjvB-9" value="문의사항" style="whiteSpace=wrap;html=1;aspect=fixed;fontSize=16;" vertex="1" parent="1">
          <mxGeometry x="530" y="120" width="160" height="160" as="geometry" />
        </mxCell>
        <mxCell id="zdY4JYns60In2oT9KjvB-10" value="시계" style="whiteSpace=wrap;html=1;aspect=fixed;fontSize=16;" vertex="1" parent="1">
          <mxGeometry x="300" y="800" width="140" height="140" as="geometry" />
        </mxCell>
        <mxCell id="zdY4JYns60In2oT9KjvB-11" value="이미지" style="whiteSpace=wrap;html=1;aspect=fixed;fontSize=16;" vertex="1" parent="1">
          <mxGeometry x="550" y="530" width="150" height="150" as="geometry" />
        </mxCell>
        <mxCell id="zdY4JYns60In2oT9KjvB-12" value="찜목록/ 구매목록/ 판매요청 목록/ 장바구니&amp;nbsp;" style="whiteSpace=wrap;html=1;aspect=fixed;fontSize=16;" vertex="1" parent="1">
          <mxGeometry x="60" y="515" width="140" height="140" as="geometry" />
        </mxCell>
        <mxCell id="zdY4JYns60In2oT9KjvB-13" value="회원 uid" style="ellipse;whiteSpace=wrap;html=1;aspect=fixed;fontSize=16;" vertex="1" parent="1">
          <mxGeometry x="-40" y="470" width="80" height="80" as="geometry" />
        </mxCell>
        <mxCell id="zdY4JYns60In2oT9KjvB-14" value="시계uid" style="ellipse;whiteSpace=wrap;html=1;aspect=fixed;fontSize=16;" vertex="1" parent="1">
          <mxGeometry x="70" y="420" width="80" height="80" as="geometry" />
        </mxCell>
        <mxCell id="zdY4JYns60In2oT9KjvB-15" value="게시물 uid" style="ellipse;whiteSpace=wrap;html=1;aspect=fixed;fontSize=16;" vertex="1" parent="1">
          <mxGeometry x="-40" y="565" width="80" height="80" as="geometry" />
        </mxCell>
        <mxCell id="zdY4JYns60In2oT9KjvB-16" value="이미지 uid" style="ellipse;whiteSpace=wrap;html=1;aspect=fixed;fontSize=16;" vertex="1" parent="1">
          <mxGeometry x="620" y="435" width="80" height="80" as="geometry" />
        </mxCell>
        <mxCell id="zdY4JYns60In2oT9KjvB-17" value="시계 uid" style="ellipse;whiteSpace=wrap;html=1;aspect=fixed;fontSize=16;" vertex="1" parent="1">
          <mxGeometry x="710" y="500" width="80" height="80" as="geometry" />
        </mxCell>
        <mxCell id="zdY4JYns60In2oT9KjvB-18" value="이미지 url" style="ellipse;whiteSpace=wrap;html=1;aspect=fixed;fontSize=16;" vertex="1" parent="1">
          <mxGeometry x="710" y="600" width="80" height="80" as="geometry" />
        </mxCell>
        <mxCell id="zdY4JYns60In2oT9KjvB-19" value="게시글 uid" style="ellipse;whiteSpace=wrap;html=1;aspect=fixed;fontSize=16;" vertex="1" parent="1">
          <mxGeometry x="520" y="10" width="80" height="80" as="geometry" />
        </mxCell>
        <mxCell id="zdY4JYns60In2oT9KjvB-20" value="회원uid" style="ellipse;whiteSpace=wrap;html=1;aspect=fixed;fontSize=16;" vertex="1" parent="1">
          <mxGeometry x="610" y="10" width="80" height="80" as="geometry" />
        </mxCell>
        <mxCell id="zdY4JYns60In2oT9KjvB-21" value="내용" style="ellipse;whiteSpace=wrap;html=1;aspect=fixed;fontSize=16;" vertex="1" parent="1">
          <mxGeometry x="700" y="120" width="80" height="80" as="geometry" />
        </mxCell>
        <mxCell id="zdY4JYns60In2oT9KjvB-22" value="제목" style="ellipse;whiteSpace=wrap;html=1;aspect=fixed;fontSize=16;" vertex="1" parent="1">
          <mxGeometry x="700" y="10" width="80" height="80" as="geometry" />
        </mxCell>
        <mxCell id="zdY4JYns60In2oT9KjvB-23" value="문의 등록일" style="ellipse;whiteSpace=wrap;html=1;aspect=fixed;fontSize=16;" vertex="1" parent="1">
          <mxGeometry x="630" y="290" width="80" height="80" as="geometry" />
        </mxCell>
        <mxCell id="zdY4JYns60In2oT9KjvB-24" value="답변" style="ellipse;whiteSpace=wrap;html=1;aspect=fixed;fontSize=16;" vertex="1" parent="1">
          <mxGeometry x="700" y="210" width="80" height="80" as="geometry" />
        </mxCell>
        <mxCell id="zdY4JYns60In2oT9KjvB-25" value="답변 등록일" style="ellipse;whiteSpace=wrap;html=1;aspect=fixed;fontSize=16;" vertex="1" parent="1">
          <mxGeometry x="530" y="290" width="80" height="80" as="geometry" />
        </mxCell>
        <mxCell id="zdY4JYns60In2oT9KjvB-26" style="edgeStyle=none;curved=1;rounded=0;orthogonalLoop=1;jettySize=auto;html=1;exitX=0;exitY=0.5;exitDx=0;exitDy=0;fontSize=12;startSize=8;endSize=8;" edge="1" parent="1" source="zdY4JYns60In2oT9KjvB-4" target="zdY4JYns60In2oT9KjvB-4">
          <mxGeometry relative="1" as="geometry" />
        </mxCell>
        <mxCell id="zdY4JYns60In2oT9KjvB-27" value="제품명" style="ellipse;whiteSpace=wrap;html=1;aspect=fixed;fontSize=16;" vertex="1" parent="1">
          <mxGeometry x="300" y="700" width="80" height="80" as="geometry" />
        </mxCell>
        <mxCell id="zdY4JYns60In2oT9KjvB-28" value="가테고리" style="ellipse;whiteSpace=wrap;html=1;aspect=fixed;fontSize=16;" vertex="1" parent="1">
          <mxGeometry x="480" y="970" width="80" height="80" as="geometry" />
        </mxCell>
        <mxCell id="zdY4JYns60In2oT9KjvB-29" value="등록일" style="ellipse;whiteSpace=wrap;html=1;aspect=fixed;fontSize=16;" vertex="1" parent="1">
          <mxGeometry x="385" y="700" width="80" height="80" as="geometry" />
        </mxCell>
        <mxCell id="zdY4JYns60In2oT9KjvB-30" value="설명" style="ellipse;whiteSpace=wrap;html=1;aspect=fixed;fontSize=16;" vertex="1" parent="1">
          <mxGeometry x="385" y="970" width="80" height="80" as="geometry" />
        </mxCell>
        <mxCell id="zdY4JYns60In2oT9KjvB-31" value="판매 유무" style="ellipse;whiteSpace=wrap;html=1;aspect=fixed;fontSize=16;" vertex="1" parent="1">
          <mxGeometry x="480" y="880" width="80" height="80" as="geometry" />
        </mxCell>
        <mxCell id="zdY4JYns60In2oT9KjvB-32" value="회원 uid" style="ellipse;whiteSpace=wrap;html=1;aspect=fixed;fontSize=16;" vertex="1" parent="1">
          <mxGeometry x="480" y="790" width="80" height="80" as="geometry" />
        </mxCell>
        <mxCell id="zdY4JYns60In2oT9KjvB-33" value="하트 수" style="ellipse;whiteSpace=wrap;html=1;aspect=fixed;fontSize=16;" vertex="1" parent="1">
          <mxGeometry x="480" y="700" width="80" height="80" as="geometry" />
        </mxCell>
        <mxCell id="zdY4JYns60In2oT9KjvB-34" value="검증유무" style="ellipse;whiteSpace=wrap;html=1;aspect=fixed;fontSize=16;" vertex="1" parent="1">
          <mxGeometry x="280" y="970" width="80" height="80" as="geometry" />
        </mxCell>
        <mxCell id="zdY4JYns60In2oT9KjvB-35" value="등급" style="ellipse;whiteSpace=wrap;html=1;aspect=fixed;fontSize=16;" vertex="1" parent="1">
          <mxGeometry x="190" y="750" width="80" height="80" as="geometry" />
        </mxCell>
        <mxCell id="zdY4JYns60In2oT9KjvB-36" value="가격" style="ellipse;whiteSpace=wrap;html=1;aspect=fixed;fontSize=16;" vertex="1" parent="1">
          <mxGeometry x="190" y="860" width="80" height="80" as="geometry" />
        </mxCell>
        <mxCell id="zdY4JYns60In2oT9KjvB-37" value="시계 uid" style="ellipse;whiteSpace=wrap;html=1;aspect=fixed;fontSize=16;" vertex="1" parent="1">
          <mxGeometry x="190" y="970" width="80" height="80" as="geometry" />
        </mxCell>
        <mxCell id="zdY4JYns60In2oT9KjvB-38" value="" style="edgeStyle=entityRelationEdgeStyle;fontSize=12;html=1;endArrow=ERzeroToMany;startArrow=ERmandOne;rounded=0;startSize=8;endSize=8;curved=1;exitX=1.021;exitY=0.446;exitDx=0;exitDy=0;exitPerimeter=0;" edge="1" parent="1" source="zdY4JYns60In2oT9KjvB-2">
          <mxGeometry width="100" height="100" relative="1" as="geometry">
            <mxPoint x="310" y="100" as="sourcePoint" />
            <mxPoint x="530" y="203" as="targetPoint" />
            <Array as="points">
              <mxPoint x="290" y="200" />
            </Array>
          </mxGeometry>
        </mxCell>
        <mxCell id="zdY4JYns60In2oT9KjvB-39" value="작성" style="rhombus;whiteSpace=wrap;html=1;fontSize=16;" vertex="1" parent="1">
          <mxGeometry x="345" y="163" width="80" height="80" as="geometry" />
        </mxCell>
        <mxCell id="zdY4JYns60In2oT9KjvB-40" value="" style="edgeStyle=entityRelationEdgeStyle;fontSize=12;html=1;endArrow=ERzeroToMany;startArrow=ERmandOne;rounded=0;exitX=1;exitY=0.75;exitDx=0;exitDy=0;entryX=1.014;entryY=0.686;entryDx=0;entryDy=0;entryPerimeter=0;" edge="1" parent="1" target="zdY4JYns60In2oT9KjvB-12">
          <mxGeometry width="100" height="100" relative="1" as="geometry">
            <mxPoint x="260" y="250" as="sourcePoint" />
            <mxPoint x="200" y="635.48" as="targetPoint" />
            <Array as="points">
              <mxPoint x="300.98" y="352.52" />
              <mxPoint x="300.98" y="342.52" />
              <mxPoint x="300.98" y="502.52" />
              <mxPoint x="310" y="537.5" />
            </Array>
          </mxGeometry>
        </mxCell>
        <mxCell id="zdY4JYns60In2oT9KjvB-44" value="" style="edgeStyle=orthogonalEdgeStyle;fontSize=12;html=1;endArrow=ERzeroToMany;endFill=1;startArrow=ERzeroToMany;rounded=0;entryX=0.986;entryY=0.843;entryDx=0;entryDy=0;entryPerimeter=0;exitX=0.007;exitY=0.357;exitDx=0;exitDy=0;exitPerimeter=0;" edge="1" parent="1" source="zdY4JYns60In2oT9KjvB-10" target="zdY4JYns60In2oT9KjvB-12">
          <mxGeometry width="100" height="100" relative="1" as="geometry">
            <mxPoint x="489.02" y="951.96" as="sourcePoint" />
            <mxPoint x="240" y="640" as="targetPoint" />
            <Array as="points">
              <mxPoint x="280" y="850" />
              <mxPoint x="280" y="633" />
            </Array>
          </mxGeometry>
        </mxCell>
        <mxCell id="zdY4JYns60In2oT9KjvB-45" value="" style="edgeStyle=orthogonalEdgeStyle;fontSize=12;html=1;endArrow=ERoneToMany;startArrow=ERmandOne;rounded=0;" edge="1" parent="1">
          <mxGeometry width="100" height="100" relative="1" as="geometry">
            <mxPoint x="440" y="820" as="sourcePoint" />
            <mxPoint x="550" y="596" as="targetPoint" />
            <Array as="points">
              <mxPoint x="470" y="820" />
              <mxPoint x="470" y="596" />
            </Array>
          </mxGeometry>
        </mxCell>
      </root>
    </mxGraphModel>
  </diagram>
</mxfile>
